<svg width="90" height="32" viewBox="0 0 90 32" fill="none" xmlns="http://www.w3.org/2000/svg">
<g clip-path="url(#clip0_539_4758)">
<path d="M41.5493 23.7697C40.1336 28.4978 36.2628 31.9991 29.5184 31.9991C21.9834 31.9991 17.6118 27.1397 17.6118 19.6108C17.6118 12.5196 22.6077 7.52894 29.7679 7.52894C36.9282 7.52894 41.7989 12.1256 41.7989 20.4864C41.7989 20.8804 41.7989 21.1868 41.7568 21.7559H26.2701C26.3944 24.3826 27.6018 25.7835 29.7259 25.7835C31.7239 25.7835 32.5566 24.6015 32.8481 23.7697H41.5484H41.5493ZM30.9172 6.56493L32.1067 0H41.1755L39.9511 6.56493H30.9172ZM33.1397 16.985C32.8902 14.5772 31.8071 13.3514 29.8511 13.3514C27.7279 13.3514 26.6037 14.7523 26.313 16.985H33.1406H33.1397Z" fill="#082422"/>
<path d="M43.4062 31.2995V0H52.315V31.2995H43.4062Z" fill="#082422"/>
<path d="M54.4253 0H63.334V6.56493H54.4253V0ZM54.4253 31.2995V8.31694H63.334V31.2987H54.4253V31.2995Z" fill="#082422"/>
<path d="M71.2848 19.6122L63.833 8.31836H73.866C74.6566 9.93815 75.5724 11.339 76.5723 13.3091C77.4049 11.6017 78.1956 10.2884 79.2366 8.31836H88.7696C86.7716 11.6893 83.6905 16.2851 81.6925 19.5684C83.8989 23.2896 87.1874 27.6665 89.4359 31.3001H79.6525C77.9872 28.2356 77.1125 27.0098 76.4882 25.784C75.4472 27.8416 74.5314 29.4176 73.4081 31.3001H63.791L71.2848 19.6122Z" fill="#082422"/>
<path d="M9.54192 20.8733H15.8847L17.2933 13.0566H13.2571C6.5476 13.0566 0.737846 17.2522 0.499052 24.355L0 31.2987H8.8148L9.54192 20.8733Z" fill="#082422"/>
<path d="M10.2136 6.87673H22.6327L23.883 0H1.54549C1.54549 0 1.12425 2.07276 1.0205 3.33964C0.585844 8.62339 4.22678 12.424 9.4722 12.5786L9.83888 12.5849L10.2145 6.87673H10.2136Z" fill="#082422"/>
</g>
<defs>
<clipPath id="clip0_539_4758">
<rect width="89.4359" height="32" fill="white"/>
</clipPath>
</defs>
</svg>
