<svg xmlns="http://www.w3.org/2000/svg" xmlns:xlink="http://www.w3.org/1999/xlink" width="1056" zoomAndPan="magnify" viewBox="0 0 792 791.999994" height="1056" preserveAspectRatio="xMidYMid meet" version="1.0"><path fill="#f6f7f8" d="M 179.65625 311.121094 C 189.820312 311.121094 199.65625 313.125 208.964844 317.050781 C 213.902344 319.132812 218.636719 321.792969 223.046875 324.898438 L 222.109375 325.386719 L 210.027344 331.5625 C 200.800781 326.410156 190.308594 323.710938 179.65625 323.710938 C 179.492188 323.710938 179.328125 323.710938 179.167969 323.710938 C 170.960938 323.792969 162.960938 325.429688 155.410156 328.578125 C 147.859375 331.765625 141.082031 336.304688 135.285156 342.105469 C 123.449219 354.003906 116.917969 369.78125 116.917969 386.539062 C 116.917969 389.277344 117.082031 392.019531 117.449219 394.757812 L 117.570312 395.613281 L 118.34375 395.207031 L 222.640625 341.945312 L 244.230469 330.90625 L 268.683594 318.398438 L 268.683594 332.542969 L 243.496094 345.417969 L 231.128906 351.714844 L 121.203125 407.917969 L 120.714844 408.203125 L 115.078125 411.066406 L 109.367188 413.96875 L 109.367188 413.925781 L 108.835938 414.171875 L 90.546875 423.535156 L 90.546875 409.390625 L 96.753906 406.242188 C 101.9375 403.585938 105.039062 398.109375 104.589844 392.261719 C 104.46875 390.339844 104.386719 388.421875 104.386719 386.5 C 104.386719 376.320312 106.386719 366.429688 110.304688 357.109375 C 114.101562 348.117188 119.53125 340.0625 126.429688 333.113281 C 133.328125 326.207031 141.367188 320.730469 150.347656 316.925781 C 159.613281 313.125 169.492188 311.121094 179.65625 311.121094 " fill-opacity="1" fill-rule="nonzero"/><path fill="#f6f7f8" d="M 268.722656 351.46875 L 268.722656 365.609375 L 262.519531 368.757812 C 257.335938 371.414062 254.234375 376.894531 254.683594 382.738281 C 254.84375 384.660156 254.886719 386.621094 254.886719 388.542969 C 254.886719 398.722656 252.886719 408.613281 248.96875 417.933594 C 245.171875 426.925781 239.742188 434.980469 232.84375 441.929688 C 225.945312 448.878906 217.863281 454.3125 208.921875 458.117188 C 199.65625 462.039062 189.777344 464.042969 179.613281 464.042969 C 169.453125 464.042969 159.613281 462.039062 150.308594 458.117188 C 145.328125 455.988281 140.59375 453.332031 136.183594 450.226562 L 148.675781 443.847656 L 149.164062 443.605469 C 158.390625 448.753906 168.921875 451.492188 179.613281 451.492188 C 179.777344 451.492188 179.902344 451.492188 180.0625 451.492188 C 188.269531 451.453125 196.269531 449.816406 203.820312 446.628906 C 211.371094 443.441406 218.148438 438.902344 223.945312 433.097656 C 235.78125 421.246094 242.3125 405.425781 242.3125 388.664062 C 242.3125 385.925781 242.148438 383.148438 241.78125 380.410156 L 241.660156 379.550781 L 240.886719 379.960938 L 136.511719 433.140625 L 114.917969 444.175781 L 90.546875 456.601562 L 90.546875 442.460938 L 115.652344 429.625 L 128.019531 423.328125 L 268.722656 351.46875 " fill-opacity="1" fill-rule="nonzero"/><path fill="#f6f7f8" d="M 394.652344 362.953125 L 380.855469 362.953125 C 377.382812 351.222656 365.957031 347.296875 355.75 347.296875 C 347.953125 347.296875 334.28125 350.773438 334.28125 362.097656 C 334.28125 371.046875 341.382812 375.503906 350.730469 377.589844 L 362.445312 380.246094 C 377.914062 383.597656 396.445312 389.441406 396.445312 409.839844 C 396.445312 429.664062 378.039062 440.128906 357.953125 440.128906 C 334.117188 440.128906 319.054688 427.128906 316.402344 406.898438 L 330.359375 406.898438 C 333.015625 420.875 342.769531 428.113281 358.242188 428.113281 C 373.140625 428.113281 381.792969 421 381.792969 411.066406 C 381.792969 400.4375 372.730469 395.984375 360.035156 393.203125 L 347.503906 390.546875 C 333.707031 387.480469 319.746094 379.796875 319.746094 362.914062 C 319.746094 343.660156 339.953125 335.28125 356.28125 335.28125 C 374.445312 335.320312 390.730469 343.414062 394.652344 362.953125 Z M 394.652344 362.953125 " fill-opacity="1" fill-rule="nonzero"/><path fill="#f6f7f8" d="M 427.835938 344.394531 L 427.835938 363.242188 L 442.042969 363.242188 L 442.042969 373.417969 L 427.835938 373.417969 L 427.835938 417.933594 C 427.835938 425.742188 428.410156 427.703125 435.632812 427.703125 L 442.042969 427.703125 L 442.042969 438.332031 L 432.859375 438.332031 C 418.488281 438.332031 415.140625 435.101562 415.140625 419.488281 L 415.140625 373.417969 L 403.304688 373.417969 L 403.304688 363.242188 L 415.140625 363.242188 L 415.140625 344.394531 Z M 427.835938 344.394531 " fill-opacity="1" fill-rule="nonzero"/><path fill="#f6f7f8" d="M 484.984375 429.011719 C 496.128906 429.011719 502.25 423.984375 505.476562 416.585938 L 518.578125 416.585938 C 515.109375 429.582031 503.230469 440.171875 484.984375 440.171875 C 461.269531 440.171875 448.164062 423.125 448.164062 400.929688 C 448.164062 377.179688 464.042969 361.972656 484.535156 361.972656 C 507.394531 361.972656 521.191406 381.226562 519.515625 404.976562 L 461.796875 404.976562 C 462.410156 421.164062 473.839844 429.011719 484.984375 429.011719 Z M 506.167969 394.101562 C 505.882812 383.472656 497.964844 372.886719 484.574219 372.886719 C 473.269531 372.886719 463.105469 379.019531 462.003906 394.101562 Z M 506.167969 394.101562 " fill-opacity="1" fill-rule="nonzero"/><path fill="#f6f7f8" d="M 531.558594 337.121094 L 544.253906 337.121094 L 544.253906 438.332031 L 531.558594 438.332031 Z M 531.558594 337.121094 " fill-opacity="1" fill-rule="nonzero"/><path fill="#f6f7f8" d="M 559.847656 337.121094 L 572.542969 337.121094 L 572.542969 438.332031 L 559.847656 438.332031 Z M 559.847656 337.121094 " fill-opacity="1" fill-rule="nonzero"/><path fill="#f6f7f8" d="M 634.996094 392.140625 L 634.996094 390.339844 C 634.996094 376.648438 627.320312 372.070312 617.972656 372.070312 C 607.523438 372.070312 601.402344 377.792969 600.828125 386.988281 L 587.726562 386.988281 C 588.992188 370.800781 603.195312 361.726562 617.851562 361.726562 C 638.464844 361.726562 647.8125 371.621094 647.691406 392.710938 L 647.566406 410.003906 C 647.445312 422.550781 648.136719 431.21875 649.527344 438.332031 L 636.710938 438.332031 C 636.300781 435.550781 635.894531 432.484375 635.730469 427.988281 C 631.117188 435.675781 623.320312 440.128906 610.09375 440.128906 C 596.011719 440.128906 584.296875 432.320312 584.296875 418.503906 C 584.257812 400.804688 604.175781 395.613281 634.996094 392.140625 Z M 598.339844 418.261719 C 598.339844 425.371094 603.769531 430.113281 612.828125 430.113281 C 624.667969 430.113281 635.972656 424.679688 635.972656 406.9375 L 635.972656 402.195312 C 612.953125 404.566406 598.339844 407.917969 598.339844 418.261719 Z M 598.339844 418.261719 " fill-opacity="1" fill-rule="nonzero"/><path fill="#f6f7f8" d="M 693.816406 375.953125 C 682.101562 375.953125 676.261719 382.535156 676.261719 399.007812 L 676.261719 438.371094 L 663.566406 438.371094 L 663.566406 363.242188 L 675.976562 363.242188 L 675.976562 376.363281 C 679.734375 367.859375 687.40625 363.117188 697.164062 362.832031 C 698.429688 362.832031 699.53125 362.832031 700.917969 362.953125 L 700.917969 376.484375 C 698.265625 376.238281 695.898438 375.953125 693.816406 375.953125 Z M 693.816406 375.953125 " fill-opacity="1" fill-rule="nonzero"/></svg>